<mxfile host="Electron" agent="Mozilla/5.0 (Windows NT 10.0; Win64; x64) AppleWebKit/537.36 (KHTML, like Gecko) draw.io/28.1.2 Chrome/138.0.7204.243 Electron/37.4.0 Safari/537.36" version="28.1.2">
  <diagram name="PÃ¡gina-1" id="sC71UwRwQccqJ4tu4v_8">
    <mxGraphModel dx="1665" dy="859" grid="1" gridSize="10" guides="1" tooltips="1" connect="1" arrows="1" fold="1" page="1" pageScale="1" pageWidth="827" pageHeight="1169" math="0" shadow="0">
      <root>
        <mxCell id="0" />
        <mxCell id="1" parent="0" />
        <mxCell id="yoYWW2XlAhwhZTLS6u0n-26" value="" style="rounded=0;whiteSpace=wrap;html=1;movable=0;resizable=0;rotatable=0;deletable=0;editable=0;locked=1;connectable=0;" parent="1" vertex="1">
          <mxGeometry x="214" y="335" width="400" height="500" as="geometry" />
        </mxCell>
        <mxCell id="yoYWW2XlAhwhZTLS6u0n-29" style="edgeStyle=orthogonalEdgeStyle;rounded=0;orthogonalLoop=1;jettySize=auto;html=1;exitX=0.75;exitY=0.1;exitDx=0;exitDy=0;exitPerimeter=0;entryX=0;entryY=0.5;entryDx=0;entryDy=0;" parent="1" source="yoYWW2XlAhwhZTLS6u0n-31" target="yoYWW2XlAhwhZTLS6u0n-46" edge="1">
          <mxGeometry relative="1" as="geometry" />
        </mxCell>
        <mxCell id="yoYWW2XlAhwhZTLS6u0n-30" style="edgeStyle=orthogonalEdgeStyle;rounded=0;orthogonalLoop=1;jettySize=auto;html=1;exitX=0.5;exitY=0.5;exitDx=0;exitDy=0;exitPerimeter=0;entryX=0;entryY=0.5;entryDx=0;entryDy=0;" parent="1" source="yoYWW2XlAhwhZTLS6u0n-31" target="yoYWW2XlAhwhZTLS6u0n-50" edge="1">
          <mxGeometry relative="1" as="geometry" />
        </mxCell>
        <mxCell id="yoYWW2XlAhwhZTLS6u0n-31" value="Gerente" style="shape=umlActor;verticalLabelPosition=bottom;verticalAlign=top;html=1;outlineConnect=0;" parent="1" vertex="1">
          <mxGeometry x="140" y="760" width="30" height="60" as="geometry" />
        </mxCell>
        <mxCell id="yoYWW2XlAhwhZTLS6u0n-32" style="edgeStyle=orthogonalEdgeStyle;rounded=0;orthogonalLoop=1;jettySize=auto;html=1;exitX=0.5;exitY=0.5;exitDx=0;exitDy=0;exitPerimeter=0;entryX=0;entryY=0.5;entryDx=0;entryDy=0;" parent="1" source="yoYWW2XlAhwhZTLS6u0n-33" target="yoYWW2XlAhwhZTLS6u0n-38" edge="1">
          <mxGeometry relative="1" as="geometry" />
        </mxCell>
        <mxCell id="yoYWW2XlAhwhZTLS6u0n-33" value="empleado" style="shape=umlActor;verticalLabelPosition=bottom;verticalAlign=top;html=1;outlineConnect=0;" parent="1" vertex="1">
          <mxGeometry x="140" y="600" width="30" height="60" as="geometry" />
        </mxCell>
        <mxCell id="yoYWW2XlAhwhZTLS6u0n-34" value="Central" style="shape=umlActor;verticalLabelPosition=bottom;verticalAlign=top;html=1;outlineConnect=0;" parent="1" vertex="1">
          <mxGeometry x="660" y="450" width="30" height="60" as="geometry" />
        </mxCell>
        <mxCell id="yoYWW2XlAhwhZTLS6u0n-38" value="Cobrar factura" style="ellipse;whiteSpace=wrap;html=1;" parent="1" vertex="1">
          <mxGeometry x="270" y="600" width="80" height="40" as="geometry" />
        </mxCell>
        <mxCell id="yoYWW2XlAhwhZTLS6u0n-41" value="" style="endArrow=block;endSize=16;endFill=0;html=1;rounded=0;exitX=0.5;exitY=0;exitDx=0;exitDy=0;exitPerimeter=0;" parent="1" source="yoYWW2XlAhwhZTLS6u0n-31" edge="1">
          <mxGeometry width="160" relative="1" as="geometry">
            <mxPoint x="240" y="640" as="sourcePoint" />
            <mxPoint x="155" y="680" as="targetPoint" />
            <Array as="points" />
          </mxGeometry>
        </mxCell>
        <mxCell id="yoYWW2XlAhwhZTLS6u0n-46" value="Registrar cobros" style="ellipse;whiteSpace=wrap;html=1;" parent="1" vertex="1">
          <mxGeometry x="280" y="710" width="80" height="40" as="geometry" />
        </mxCell>
        <mxCell id="yoYWW2XlAhwhZTLS6u0n-50" value="Ver estadisticas" style="ellipse;whiteSpace=wrap;html=1;" parent="1" vertex="1">
          <mxGeometry x="280" y="780" width="80" height="40" as="geometry" />
        </mxCell>
        <mxCell id="yoYWW2XlAhwhZTLS6u0n-53" style="edgeStyle=orthogonalEdgeStyle;rounded=0;orthogonalLoop=1;jettySize=auto;html=1;exitX=0;exitY=0.5;exitDx=0;exitDy=0;" parent="1" source="yoYWW2XlAhwhZTLS6u0n-52" target="yoYWW2XlAhwhZTLS6u0n-38" edge="1">
          <mxGeometry relative="1" as="geometry" />
        </mxCell>
        <mxCell id="yoYWW2XlAhwhZTLS6u0n-54" value="extend" style="edgeLabel;html=1;align=center;verticalAlign=middle;resizable=0;points=[];" parent="yoYWW2XlAhwhZTLS6u0n-53" vertex="1" connectable="0">
          <mxGeometry x="-0.3262" y="2" relative="1" as="geometry">
            <mxPoint as="offset" />
          </mxGeometry>
        </mxCell>
        <mxCell id="yoYWW2XlAhwhZTLS6u0n-52" value="Recuperar datos" style="ellipse;whiteSpace=wrap;html=1;" parent="1" vertex="1">
          <mxGeometry x="374" y="530" width="80" height="40" as="geometry" />
        </mxCell>
        <mxCell id="yoYWW2XlAhwhZTLS6u0n-86" value="" style="endArrow=none;html=1;rounded=0;exitX=0.954;exitY=0.371;exitDx=0;exitDy=0;exitPerimeter=0;entryX=0;entryY=0.3333333333333333;entryDx=0;entryDy=0;entryPerimeter=0;" parent="1" source="yoYWW2XlAhwhZTLS6u0n-52" target="yoYWW2XlAhwhZTLS6u0n-34" edge="1">
          <mxGeometry width="50" height="50" relative="1" as="geometry">
            <mxPoint x="540" y="570" as="sourcePoint" />
            <mxPoint x="590" y="520" as="targetPoint" />
          </mxGeometry>
        </mxCell>
        <mxCell id="yoYWW2XlAhwhZTLS6u0n-87" value="extend" style="edgeLabel;html=1;align=center;verticalAlign=middle;resizable=0;points=[];" parent="1" vertex="1" connectable="0">
          <mxGeometry x="374" y="680.0000000000002" as="geometry" />
        </mxCell>
        <mxCell id="yoYWW2XlAhwhZTLS6u0n-88" value="Enviar pagos" style="ellipse;whiteSpace=wrap;html=1;" parent="1" vertex="1">
          <mxGeometry x="424.16333333333324" y="660" width="80" height="40" as="geometry" />
        </mxCell>
        <mxCell id="yoYWW2XlAhwhZTLS6u0n-90" value="" style="endArrow=none;html=1;rounded=0;exitX=0.954;exitY=0.371;exitDx=0;exitDy=0;exitPerimeter=0;entryX=1;entryY=1;entryDx=0;entryDy=0;entryPerimeter=0;" parent="1" target="yoYWW2XlAhwhZTLS6u0n-34" edge="1">
          <mxGeometry width="50" height="50" relative="1" as="geometry">
            <mxPoint x="480" y="661" as="sourcePoint" />
            <mxPoint x="690" y="600" as="targetPoint" />
          </mxGeometry>
        </mxCell>
        <mxCell id="yoYWW2XlAhwhZTLS6u0n-91" style="edgeStyle=orthogonalEdgeStyle;rounded=0;orthogonalLoop=1;jettySize=auto;html=1;exitX=0;exitY=0.5;exitDx=0;exitDy=0;entryX=0.625;entryY=0;entryDx=0;entryDy=0;entryPerimeter=0;" parent="1" source="yoYWW2XlAhwhZTLS6u0n-88" target="yoYWW2XlAhwhZTLS6u0n-46" edge="1">
          <mxGeometry relative="1" as="geometry" />
        </mxCell>
      </root>
    </mxGraphModel>
  </diagram>
</mxfile>
